<svg width="965" height="736" viewBox="0 0 965 736" fill="none" xmlns="http://www.w3.org/2000/svg">
<mask id="path-1-inside-1_312_10986" fill="white">
<path d="M949 0C957.837 0 965 7.16344 965 16V720C965 728.837 957.837 736 949 736H733C594.929 736 483 727.046 483 716C483 727.046 371.071 736 233 736H16C7.16344 736 1.61074e-07 728.837 0 720V16C0 7.16344 7.16344 3.65415e-07 16 0H233C371.071 0 483 8.9543 483 20C483 8.9543 594.929 0 733 0H949Z"/>
</mask>
<path d="M949 0C957.837 0 965 7.16344 965 16V720C965 728.837 957.837 736 949 736H733C594.929 736 483 727.046 483 716C483 727.046 371.071 736 233 736H16C7.16344 736 1.61074e-07 728.837 0 720V16C0 7.16344 7.16344 3.65415e-07 16 0H233C371.071 0 483 8.9543 483 20C483 8.9543 594.929 0 733 0H949Z" fill="white"/>
<path d="M965 16H966H965ZM949 736V737V736ZM0 720H-1H0ZM16 0V-1V0ZM949 0V1C957.284 1 964 7.71573 964 16H965H966C966 6.61116 958.389 -1 949 -1V0ZM965 16H964V720H965H966V16H965ZM965 720H964C964 728.284 957.284 735 949 735V736V737C958.389 737 966 729.389 966 720H965ZM949 736V735H733V736V737H949V736ZM733 736V735C663.982 735 601.51 732.762 556.303 729.145C533.694 727.337 515.43 725.185 502.832 722.802C496.525 721.609 491.686 720.367 488.443 719.099C486.816 718.463 485.651 717.843 484.91 717.259C484.15 716.661 484 716.236 484 716H483H482C482 717.144 482.724 718.084 483.672 718.83C484.637 719.591 486.012 720.296 487.715 720.962C491.133 722.298 496.117 723.568 502.46 724.767C515.164 727.17 533.511 729.328 556.144 731.139C601.419 734.761 663.947 737 733 737V736ZM483 716H482C482 716.236 481.85 716.661 481.09 717.259C480.349 717.843 479.184 718.463 477.557 719.099C474.314 720.367 469.475 721.609 463.168 722.802C450.57 725.185 432.306 727.337 409.697 729.145C364.49 732.762 302.018 735 233 735V736V737C302.053 737 364.581 734.761 409.856 731.139C432.489 729.328 450.836 727.17 463.54 724.767C469.883 723.568 474.867 722.298 478.285 720.962C479.988 720.296 481.363 719.591 482.328 718.83C483.276 718.084 484 717.144 484 716H483ZM233 736V735H16V736V737H233V736ZM16 736V735C7.71573 735 1 728.284 1 720H0H-1C-1 729.389 6.61116 737 16 737V736ZM0 720H1V16H0H-1V720H0ZM0 16H1C1 7.71573 7.71573 1 16 1V0V-1C6.61116 -1 -1 6.61116 -1 16H0ZM16 0V1H233V0V-1H16V0ZM233 0V1C302.018 1 364.49 3.23811 409.697 6.85468C432.306 8.66337 450.57 10.8148 463.168 13.1977C469.475 14.3906 474.314 15.6329 477.557 16.9007C479.184 17.5366 480.349 18.1566 481.09 18.7407C481.85 19.3388 482 19.7637 482 20H483H484C484 18.8556 483.276 17.9161 482.328 17.1696C481.363 16.409 479.988 15.7039 478.285 15.0379C474.867 13.7018 469.883 12.4324 463.54 11.2325C450.836 8.82982 432.489 6.67165 409.856 4.86105C364.581 1.23904 302.053 -1 233 -1V0ZM483 20H484C484 19.7637 484.15 19.3388 484.91 18.7407C485.651 18.1566 486.816 17.5366 488.443 16.9007C491.686 15.6329 496.525 14.3906 502.832 13.1977C515.43 10.8148 533.694 8.66337 556.303 6.85468C601.51 3.23811 663.982 1 733 1V0V-1C663.947 -1 601.419 1.23904 556.144 4.86105C533.511 6.67165 515.164 8.82982 502.46 11.2325C496.117 12.4324 491.133 13.7018 487.715 15.0379C486.012 15.7039 484.637 16.409 483.672 17.1696C482.724 17.9161 482 18.8556 482 20H483ZM733 0V1H949V0V-1H733V0Z" fill="#D3D3D3" mask="url(#path-1-inside-1_312_10986)"/>
</svg>
