<svg width="22" height="22" viewBox="0 0 22 22" fill="none" xmlns="http://www.w3.org/2000/svg">
<g clip-path="url(#clip0_228_4875)">
<path d="M1.47939 18.2185C1.24124 18.4566 1.24124 18.8422 1.47939 19.0803L2.53539 20.1363C2.77354 20.3745 3.15909 20.3745 3.39724 20.1363L13.3764 10.1571L11.4586 8.23926L1.47939 18.2185Z" fill="#3D3D3D"/>
<path d="M16.0477 6.68404L14.9317 5.56809C14.7101 5.34644 14.3515 5.34644 14.1298 5.56809L11.4585 8.23944L13.3763 10.1573L16.0477 7.48594C16.2693 7.26429 16.2693 6.90569 16.0477 6.68404Z" fill="#D5D5D5"/>
<path d="M21.631 4.56479C21.631 4.67479 21.5595 4.76829 21.4495 4.79029L19.8435 5.15329C19.4475 5.24129 19.1285 5.64829 19.057 6.16529L18.7655 8.16729C18.749 8.28279 18.65 8.37079 18.5345 8.37079C18.419 8.37079 18.32 8.28279 18.3035 8.16729L18.0175 6.16529C17.9405 5.64829 17.627 5.24129 17.2255 5.15329L15.6195 4.79029C15.5095 4.76829 15.438 4.67479 15.438 4.56479C15.438 4.45479 15.5095 4.36129 15.6195 4.33929L17.2255 3.97629C17.627 3.88829 17.9405 3.48129 18.0175 2.96429L18.3035 0.956789C18.32 0.846789 18.419 0.758789 18.5345 0.758789C18.65 0.758789 18.749 0.846789 18.7655 0.956789L19.057 2.96429C19.1285 3.48129 19.4475 3.88829 19.8435 3.97629L21.455 4.33929C21.5595 4.36129 21.631 4.45479 21.631 4.56479Z" fill="#FFCD00"/>
<path d="M18.1937 12.4682C18.1937 12.5782 18.1222 12.6717 18.0122 12.6937L16.8902 12.9467C16.6372 13.0017 16.4392 13.2657 16.3897 13.5957L16.1862 14.9982C16.1697 15.1137 16.0762 15.1962 15.9607 15.1962C15.8452 15.1962 15.7462 15.1137 15.7297 14.9982L15.5262 13.5957C15.4767 13.2657 15.2787 13.0017 15.0312 12.9467L13.9037 12.6937C13.7937 12.6717 13.7222 12.5782 13.7222 12.4682C13.7222 12.3582 13.7937 12.2647 13.9037 12.2427L15.0312 11.9897C15.2787 11.9347 15.4767 11.6707 15.5262 11.3407L15.7297 9.93823C15.7462 9.82273 15.8452 9.74023 15.9607 9.74023C16.0762 9.74023 16.1697 9.82273 16.1862 9.93823L16.3897 11.3407C16.4392 11.6707 16.6372 11.9347 16.8902 11.9897L18.0122 12.2427C18.1222 12.2647 18.1937 12.3582 18.1937 12.4682Z" fill="#FFCD00"/>
<path d="M11.7697 3.8774C11.7697 3.9874 11.6927 4.0809 11.5882 4.1084L10.6862 4.3064C10.5047 4.3504 10.3617 4.5429 10.3232 4.7904L10.1637 5.9124C10.1472 6.0279 10.0482 6.1104 9.9327 6.1104C9.8172 6.1104 9.7182 6.0279 9.7017 5.9124L9.5422 4.7904C9.5037 4.5429 9.3607 4.3504 9.1792 4.3064L8.2772 4.1084C8.1727 4.0809 8.0957 3.9874 8.0957 3.8774C8.0957 3.7729 8.1727 3.6794 8.2772 3.6519L9.1792 3.4539C9.3607 3.4099 9.5037 3.2174 9.5422 2.9699L9.7017 1.8479C9.7182 1.7324 9.8172 1.6499 9.9327 1.6499C10.0482 1.6499 10.1472 1.7324 10.1637 1.8479L10.3232 2.9699C10.3617 3.2174 10.5047 3.4099 10.6862 3.4539L11.5882 3.6519C11.6927 3.6794 11.7697 3.7729 11.7697 3.8774Z" fill="#FFCD00"/>
</g>
<defs>
<clipPath id="clip0_228_4875">
<rect width="22" height="22" fill="white"/>
</clipPath>
</defs>
</svg>
