<svg width="22" height="22" viewBox="0 0 22 22" fill="none" xmlns="http://www.w3.org/2000/svg">
<g clip-path="url(#clip0_277_4784)">
<path d="M18.1468 11C18.1468 10.9967 18.1468 10.994 18.1468 10.9907C18.1457 10.3901 18.3453 9.8065 18.7628 9.3742L19.7495 8.3534C20.0184 8.07565 20.0701 7.65325 19.8771 7.3183L18.6269 5.15295C18.4339 4.818 18.0417 4.6519 17.6666 4.7454L16.3725 5.0688C15.7609 5.2217 15.1135 5.1293 14.5685 4.81195L14.5525 4.8026C14.0168 4.49075 13.6225 3.98365 13.452 3.38745L13.0829 2.0988C12.9768 1.727 12.6369 1.4707 12.2502 1.4707H9.74994C9.36329 1.4707 9.02339 1.727 8.91724 2.0988L8.52344 3.47435C8.36724 4.0194 8.00809 4.4847 7.51474 4.7641C7.46414 4.7927 7.41354 4.8224 7.36404 4.8521C6.87069 5.14745 6.28054 5.23215 5.72284 5.09245L4.33299 4.7454C3.95789 4.6519 3.56629 4.818 3.37269 5.15295L2.12254 7.3183C1.92949 7.65325 1.98119 8.07565 2.25014 8.3534L3.23684 9.3742C3.65429 9.8065 3.85449 10.3895 3.85339 10.9907C3.85339 10.994 3.85339 10.9973 3.85339 11C3.85339 11.0033 3.85339 11.0061 3.85339 11.0094C3.85449 11.6105 3.65429 12.1935 3.23684 12.6258L2.25014 13.6466C1.98119 13.9244 1.92949 14.3468 2.12254 14.6817L3.37269 16.8471C3.56574 17.182 3.95789 17.3481 4.33299 17.2546L5.72229 16.9076C6.27999 16.7684 6.87014 16.8526 7.36349 17.1479C7.41354 17.1782 7.46414 17.2073 7.51474 17.2359C8.00809 17.5153 8.36724 17.9806 8.52344 18.5257L8.91724 19.9012C9.02339 20.273 9.36329 20.5293 9.74994 20.5293H12.2502C12.6369 20.5293 12.9768 20.273 13.0829 19.9012L13.4767 18.5257C13.6329 17.9806 13.9921 17.5153 14.4854 17.2359C14.536 17.2073 14.5866 17.1776 14.6367 17.1479C15.13 16.8526 15.7202 16.7679 16.2779 16.9076L17.6672 17.2546C18.0423 17.3481 18.4339 17.182 18.6275 16.8471L19.8776 14.6817C20.0707 14.3468 20.019 13.9244 19.75 13.6466L18.7633 12.6258C18.3459 12.1941 18.1462 11.6105 18.1473 11.0094C18.1473 11.0061 18.1468 11.0033 18.1468 11Z" fill="#FFD4B5"/>
<path d="M11.0002 15.0005C8.79416 15.0005 6.99951 13.2053 6.99951 10.9998C6.99951 8.79428 8.79471 6.99854 11.0002 6.99854C13.2057 6.99854 15.0015 8.79373 15.0015 10.9998C15.0015 13.2058 13.2063 15.0005 11.0002 15.0005ZM11.0002 8.64798C9.70441 8.64798 8.64951 9.70289 8.64951 10.9992C8.64951 12.2956 9.70441 13.3499 11.0002 13.3499C12.296 13.3499 13.3515 12.295 13.3515 10.9992C13.3515 9.70344 12.2966 8.64798 11.0002 8.64798Z" fill="#F7EBDB"/>
</g>
<defs>
<clipPath id="clip0_277_4784">
<rect width="22" height="22" fill="white"/>
</clipPath>
</defs>
</svg>
