<svg width="52" height="52" viewBox="0 0 52 52" fill="none" xmlns="http://www.w3.org/2000/svg">
<g clip-path="url(#clip0_430_6171)">
<path d="M33.28 41.7656C33.28 45.7865 30.0209 49.0456 26 49.0456C21.9791 49.0456 18.72 45.7865 18.72 41.7656H33.28Z" fill="#B1CEB1"/>
<path d="M21.6099 7.34518C21.6099 4.92068 23.5755 2.95508 26 2.95508C28.4245 2.95508 30.3901 4.92068 30.3901 7.34518H21.6112H21.6099Z" fill="#B1CEB1"/>
<path d="M7.9352 24.4701C7.9352 14.0948 16.6816 5.76307 27.2025 6.44427C36.8043 7.06567 44.0648 15.4676 44.0648 25.0889V32.9916L47.138 38.3138C48.0233 39.8478 46.917 41.7653 45.1451 41.7653H6.8536C5.083 41.7653 3.9754 39.8478 4.8607 38.3138L7.9339 32.9916L7.9352 24.4701Z" fill="#B1CEB1"/>
</g>
<defs>
<clipPath id="clip0_430_6171">
<rect width="52" height="52" fill="white"/>
</clipPath>
</defs>
</svg>
