<svg width="100" height="100" viewBox="0 0 100 100" fill="none" xmlns="http://www.w3.org/2000/svg">
<g clip-path="url(#clip0_398_4405)">
<path d="M79.36 14.0576H25.965C23.8525 14.0576 21.85 14.9476 20.4825 16.4226C20.4475 16.4601 20.4175 16.5026 20.385 16.5401C20.17 16.7826 19.9725 17.0376 19.795 17.3076C19.63 17.5676 19.485 17.8401 19.3525 18.1226C19.31 18.2101 19.2575 18.2926 19.22 18.3826C19.01 18.8851 18.8775 19.4226 18.79 19.9751C18.725 20.3976 18.685 20.8176 18.6925 21.2251C18.6975 21.4151 18.73 21.5976 18.75 21.7826C18.7825 22.0976 18.8175 22.4126 18.89 22.7151C18.9375 22.9101 19.005 23.0951 19.065 23.2826C19.1575 23.5601 19.255 23.8326 19.38 24.0926C19.4675 24.2751 19.565 24.4476 19.6675 24.6201C19.81 24.8626 19.965 25.0976 20.135 25.3226C20.255 25.4801 20.3825 25.6351 20.515 25.7851C20.705 25.9926 20.91 26.1876 21.1225 26.3726C21.27 26.5026 21.4175 26.6301 21.575 26.7476C21.81 26.9201 22.065 27.0676 22.32 27.2101C22.485 27.3001 22.6425 27.4001 22.815 27.4801C23.11 27.6126 23.4225 27.7101 23.7375 27.8026C23.8925 27.8476 24.0425 27.9126 24.2025 27.9476C24.6875 28.0526 25.1875 28.1176 25.7025 28.1176H79.355C81.835 28.1176 83.845 30.1276 83.845 32.6076V18.5551C83.845 16.0751 81.835 14.0651 79.355 14.0651L79.36 14.0576Z" fill="#E5E8EB"/>
<path d="M26.145 32.5996C19.575 32.5996 14.2475 27.2721 14.2475 20.7021V79.2946C14.2475 85.4146 19.2075 90.3721 25.325 90.3721H79.3575C81.8375 90.3721 83.8475 88.3622 83.8475 85.8821V32.5996H26.145Z" fill="#FFE691"/>
<path d="M18.7997 19.975C18.7247 20.4 18.6747 20.825 18.6997 21.225C18.6997 21.425 18.7247 21.6 18.7497 21.775C18.7747 22.1 18.8247 22.4 18.8997 22.725C18.9247 22.9 18.9997 23.1 19.0747 23.275C19.1497 23.55 19.2497 23.825 19.3747 24.1C19.4747 24.275 19.5747 24.45 19.6747 24.625C19.7997 24.875 19.9747 25.1 20.1247 25.325C20.2497 25.475 20.3747 25.625 20.5247 25.775C20.6997 26 20.8997 26.175 21.1247 26.375C21.2747 26.5 21.4247 26.625 21.5747 26.75C21.7997 26.925 22.0747 27.075 22.3247 27.2C22.4997 27.3 22.6497 27.4 22.8247 27.475C23.1247 27.6 23.4247 27.7 23.7497 27.8C23.8997 27.85 24.0497 27.9 24.1997 27.95C24.6997 28.05 25.1997 28.1 25.6997 28.1H79.3497C81.8497 28.1 83.8497 30.125 83.8497 32.6H26.1497C19.5747 32.6 14.2497 27.275 14.2497 20.7C14.2497 14.575 19.1997 9.625 25.3247 9.625H79.4247C81.8747 9.625 83.8497 11.6 83.8497 14.05V18.55C83.8497 16.075 81.8497 14.05 79.3497 14.05H25.9747C23.8497 14.05 21.8497 14.95 20.4747 16.425C20.4497 16.45 20.4247 16.5 20.3747 16.55C20.1747 16.775 19.9747 17.05 19.7997 17.3C19.6247 17.575 19.4997 17.85 19.3497 18.125C19.2997 18.2 19.2497 18.3 19.2247 18.375C19.0497 18.8 18.8997 19.225 18.8247 19.7C18.7997 19.775 18.7997 19.875 18.7997 19.975Z" fill="#F3E0C6"/>
</g>
<defs>
<clipPath id="clip0_398_4405">
<rect width="100" height="100" fill="white"/>
</clipPath>
</defs>
</svg>
