<svg width="32" height="32" viewBox="0 0 32 32" fill="none" xmlns="http://www.w3.org/2000/svg">
<g clip-path="url(#clip0_398_3137)">
<path d="M16.956 27.5605C17.3184 27.5605 17.6576 27.4125 17.9352 27.1797C19.0832 26.2173 20.5384 25.6845 22.048 25.6845H28.4128C29.252 25.6845 29.9328 25.0037 29.9328 24.1645V7.48047H2.06641V24.1645C2.06641 25.0037 2.74721 25.6845 3.58641 25.6845H9.95121C11.4608 25.6845 12.916 26.2181 14.064 27.1797C14.3416 27.4125 14.6808 27.5605 15.0432 27.5605H16.956Z" fill="#567D57"/>
<path d="M16 26.0404C17.2008 24.8396 18.8296 24.1644 20.528 24.1644H28.4128C29.252 24.1644 29.9328 23.4836 29.9328 22.6444V5.96043C29.9328 5.12123 29.252 4.44043 28.4128 4.44043H20.528C18.8296 4.44043 17.2008 5.11483 16 6.31643" fill="#BACCB9"/>
<path d="M16 26.0404C14.7992 24.8396 13.1704 24.1644 11.472 24.1644H3.58641C2.74721 24.1644 2.06641 23.4836 2.06641 22.6444V5.96043C2.06641 5.12123 2.74721 4.44043 3.58641 4.44043H11.4712C13.1696 4.44043 14.7984 5.11483 15.9992 6.31643" fill="#E5E8EB"/>
</g>
<defs>
<clipPath id="clip0_398_3137">
<rect width="32" height="32" fill="white"/>
</clipPath>
</defs>
</svg>
