<svg width="100" height="100" viewBox="0 0 100 100" fill="none" xmlns="http://www.w3.org/2000/svg">
<g clip-path="url(#clip0_398_5313)">
<path d="M80.31 14.0576H26.9175C24.805 14.0576 22.8025 14.9476 21.435 16.4226C21.4025 16.4601 21.3725 16.5001 21.34 16.5376C21.125 16.7801 20.925 17.0376 20.7475 17.3101C20.5825 17.5701 20.4375 17.8401 20.3075 18.1226C20.265 18.2101 20.2125 18.2926 20.1725 18.3826C19.9625 18.8851 19.83 19.4226 19.7425 19.9751C19.6775 20.3976 19.6375 20.8176 19.645 21.2251C19.65 21.4151 19.6825 21.5951 19.7 21.7826C19.7325 22.1001 19.7675 22.4151 19.84 22.7176C19.8875 22.9126 19.9525 23.0951 20.015 23.2826C20.1075 23.5601 20.205 23.8326 20.33 24.0926C20.4175 24.2751 20.515 24.4476 20.615 24.6201C20.7575 24.8626 20.9125 25.0976 21.085 25.3226C21.205 25.4801 21.33 25.6351 21.465 25.7826C21.655 25.9926 21.86 26.1851 22.0725 26.3701C22.22 26.5001 22.3675 26.6276 22.525 26.7451C22.76 26.9176 23.015 27.0651 23.2725 27.2076C23.4375 27.2976 23.595 27.3976 23.7675 27.4751C24.0625 27.6076 24.375 27.7051 24.69 27.7976C24.845 27.8426 24.995 27.9051 25.155 27.9426C25.64 28.0476 26.14 28.1126 26.655 28.1126H80.3075C82.7875 28.1126 84.7975 30.1226 84.7975 32.6026V18.5501C84.7975 16.0701 82.7875 14.0601 80.3075 14.0601L80.31 14.0576Z" fill="#E5E8EB"/>
<path d="M27.095 32.5996C20.525 32.5996 15.1975 27.2721 15.1975 20.7021V79.2946C15.1975 85.4146 20.1575 90.3721 26.275 90.3721H80.3075C82.7875 90.3721 84.7975 88.3622 84.7975 85.8821V32.5996H27.095Z" fill="#FFBCDB"/>
<path d="M19.75 19.975C19.675 20.4 19.625 20.825 19.65 21.225C19.65 21.425 19.675 21.6 19.7 21.775C19.725 22.1 19.775 22.425 19.85 22.725C19.875 22.9 19.95 23.1 20.025 23.275C20.1 23.55 20.2 23.825 20.325 24.1C20.425 24.275 20.525 24.45 20.625 24.625C20.75 24.875 20.925 25.1 21.075 25.325C21.2 25.475 21.325 25.625 21.475 25.775C21.65 26 21.85 26.175 22.075 26.375C22.225 26.5 22.375 26.625 22.525 26.75C22.775 26.925 23.025 27.075 23.275 27.2C23.45 27.3 23.6 27.4 23.775 27.475C24.075 27.6 24.375 27.7 24.7 27.8C24.85 27.85 25 27.9 25.15 27.95C25.65 28.05 26.15 28.1 26.65 28.1H80.3C82.8 28.1 84.8 30.125 84.8 32.6H27.1C20.525 32.6 15.2 27.275 15.2 20.7C15.2 14.575 20.15 9.625 26.275 9.625H80.375C82.825 9.625 84.8 11.6 84.8 14.05V18.55C84.8 16.075 82.8 14.05 80.3 14.05H26.925C24.8 14.05 22.8 14.95 21.425 16.425C21.4 16.45 21.375 16.5 21.35 16.525C21.125 16.775 20.925 17.025 20.75 17.3C20.575 17.575 20.45 17.85 20.3 18.125C20.275 18.2 20.2 18.3 20.175 18.375C20 18.8 19.85 19.225 19.775 19.7C19.75 19.775 19.75 19.875 19.75 19.975Z" fill="#D8BECB"/>
</g>
<defs>
<clipPath id="clip0_398_5313">
<rect width="100" height="100" fill="white"/>
</clipPath>
</defs>
</svg>
