<svg width="28" height="28" viewBox="0 0 28 28" fill="none" xmlns="http://www.w3.org/2000/svg">
<g clip-path="url(#clip0_283_4616)">
<path d="M9.93225 11.6426C10.0436 11.4571 10.164 11.2765 10.2935 11.1008C10.1647 11.2765 10.0436 11.4564 9.93225 11.6426Z" fill="#49684A"/>
<path d="M13.7963 8.57129L11.0033 5.77759C11.55 6.32429 12.4362 6.32429 12.9829 5.77759C13.5296 5.23089 13.5296 4.34399 12.9829 3.79799L17.0156 7.83139C17.2067 8.02249 17.3817 8.22549 17.5476 8.43409C17.0219 8.30949 16.4808 8.23809 15.9271 8.23809C15.1928 8.23809 14.4767 8.35429 13.7963 8.57129Z" fill="#83AD83"/>
<path d="M18.1573 16.208C18.5073 15.5444 18.2756 14.7177 17.619 14.3411C16.9484 13.9561 16.0923 14.1885 15.708 14.8591C15.6954 14.8808 15.6793 14.9004 15.666 14.9221C16.0524 14.2788 16.2631 13.5431 16.2631 12.7731C16.2631 12.1641 16.1301 11.5775 15.8851 11.0392C15.8991 11.0392 15.9131 11.0371 15.9271 11.0371C17.0464 11.0371 18.0985 11.4725 18.8895 12.2642L19.0456 12.4196C19.0512 12.5372 19.0631 12.6541 19.0631 12.7724C19.0631 13.9967 18.7453 15.1713 18.1573 16.208Z" fill="#83AD83"/>
<path d="M12.9829 5.77642C12.4362 6.32312 11.55 6.32312 11.0033 5.77642C9.37017 4.14402 6.71157 4.14332 5.07707 5.77642C3.44397 7.41022 3.44397 10.0688 5.07707 11.7026L8.95437 15.5792L9.11047 15.7346C9.90217 16.5263 10.9543 16.9617 12.0729 16.9617C12.0869 16.9617 12.1009 16.9596 12.1149 16.9596C13.2181 16.9484 14.2534 16.5158 15.0353 15.7346C15.155 15.6149 15.2642 15.4868 15.3678 15.3552C15.3958 15.3195 15.421 15.2838 15.4476 15.2474C15.5253 15.1417 15.5981 15.0325 15.6653 14.9212C15.6779 14.8995 15.6947 14.8799 15.7073 14.8582C16.0923 14.1876 16.9477 13.9552 17.6183 14.3402C18.2742 14.7168 18.5066 15.5435 18.1566 16.2071C18.1489 16.2218 18.1447 16.2372 18.137 16.2519C18.116 16.2883 18.0894 16.3198 18.0677 16.3555C17.9564 16.5417 17.8353 16.723 17.7058 16.8987C17.6596 16.9617 17.6148 17.0247 17.5665 17.0863C17.3943 17.3047 17.213 17.5168 17.0149 17.7149C16.2141 18.5157 15.2523 19.0946 14.2037 19.4285C13.5233 19.6455 12.8072 19.7617 12.0729 19.7617C11.5192 19.7617 10.9781 19.6903 10.4524 19.5657C9.20568 19.271 8.05907 18.6431 7.13088 17.7142L3.09747 13.6815C0.372375 10.9557 0.372375 6.52122 3.09747 3.79612C4.46037 2.43392 6.25028 1.75212 8.04087 1.75212C9.83148 1.75212 11.62 2.43392 12.9836 3.79612C13.5303 4.34212 13.5303 5.22902 12.9836 5.77572L12.9829 5.77642Z" fill="#83AD83"/>
<path d="M24.906 14.3148L20.867 10.2828C19.943 9.3588 18.795 8.7288 17.549 8.4348C17.024 8.3088 16.478 8.2388 15.925 8.2388C15.19 8.2388 14.476 8.3508 13.797 8.5678C13.342 8.7148 12.901 8.9108 12.481 9.1488C12.439 9.1768 12.39 9.2048 12.341 9.2328C12.159 9.3448 11.977 9.4638 11.795 9.5968C11.739 9.6388 11.676 9.6878 11.613 9.7298C11.396 9.9048 11.186 10.0868 10.983 10.2828C10.787 10.4858 10.605 10.6958 10.43 10.9128C10.388 10.9758 10.339 11.0388 10.29 11.1018C10.164 11.2768 10.045 11.4588 9.93296 11.6408C9.91196 11.6758 9.88396 11.7108 9.86296 11.7458C9.85596 11.7598 9.84896 11.7808 9.84196 11.7948C9.25396 12.8308 8.93896 13.9998 8.93896 15.2248C8.93896 15.3438 8.94596 15.4628 8.95296 15.5818L9.10696 15.7358C9.90496 16.5268 10.955 16.9608 12.075 16.9608H12.117C11.872 16.4218 11.739 15.8338 11.739 15.2248C11.739 14.4548 11.949 13.7198 12.334 13.0758C12.404 12.9638 12.474 12.8588 12.551 12.7538C12.579 12.7118 12.607 12.6768 12.635 12.6418C12.733 12.5088 12.845 12.3828 12.964 12.2638C13.083 12.1448 13.209 12.0328 13.342 11.9348C13.377 11.9068 13.412 11.8788 13.454 11.8508C13.559 11.7738 13.664 11.7038 13.776 11.6338C14.413 11.2558 15.127 11.0458 15.883 11.0388H15.925C17.045 11.0388 18.095 11.4728 18.893 12.2638L19.047 12.4178L22.925 16.2958C24.556 17.9338 24.556 20.5868 22.925 22.2248C21.287 23.8558 18.634 23.8558 16.996 22.2248L15.82 21.0418L15.078 20.2998L14.203 19.4318C13.524 19.6488 12.81 19.7608 12.075 19.7608C11.522 19.7608 10.976 19.6908 10.451 19.5648C10.619 19.7748 10.794 19.9778 10.983 20.1668L13.097 22.2808L15.015 24.2058C17.738 26.9288 22.176 26.9288 24.906 24.2058C27.629 21.4758 27.629 17.0448 24.906 14.3148Z" fill="#49684A"/>
</g>
<defs>
<clipPath id="clip0_283_4616">
<rect width="28" height="28" fill="white" transform="matrix(1 0 0 -1 0 28)"/>
</clipPath>
</defs>
</svg>
