<svg width="30" height="30" viewBox="0 0 30 30" fill="none" xmlns="http://www.w3.org/2000/svg">
<g clip-path="url(#clip0_1067_8941)">
<path d="M24.7785 3.47168H5.22146C4.42121 3.47168 3.77246 4.12043 3.77246 4.92068V25.9267C3.77246 26.7269 4.42121 27.3757 5.22146 27.3757H20.4322L26.2267 21.5812V4.92068C26.2267 4.12043 25.5787 3.47168 24.7785 3.47168Z" fill="#B1CEB1"/>
<path fill-rule="evenodd" clip-rule="evenodd" d="M21.8812 21.5808H26.2275L20.433 27.3753V23.0291C20.433 22.2288 21.0817 21.5801 21.882 21.5801L21.8812 21.5808Z" fill="#83AD83"/>
<path d="M26.2267 7.48633H3.77246V8.21008H26.2267V7.48633Z" fill="#83AD83"/>
<path d="M26.2267 10.9092H3.77246V11.6329H26.2267V10.9092Z" fill="#83AD83"/>
<path d="M26.2267 14.332H3.77246V15.0558H26.2267V14.332Z" fill="#83AD83"/>
<path d="M26.2267 17.7549H3.77246V18.4786H26.2267V17.7549Z" fill="#83AD83"/>
<path d="M7.43015 5.34073C6.9299 5.34073 6.5249 4.93573 6.5249 4.43548V2.62498C6.5249 2.12473 6.93065 1.71973 7.43015 1.71973C7.92965 1.71973 8.3354 2.12473 8.3354 2.62498V4.43548C8.3354 4.93573 7.92965 5.34073 7.43015 5.34073Z" fill="#49684A"/>
<path d="M12.2595 5.34073C11.7592 5.34073 11.3542 4.93573 11.3542 4.43548V2.62498C11.3542 2.12473 11.76 1.71973 12.2595 1.71973C12.759 1.71973 13.1647 2.12473 13.1647 2.62498V4.43548C13.1647 4.93573 12.759 5.34073 12.2595 5.34073Z" fill="#49684A"/>
<path d="M17.088 5.34073C16.5877 5.34073 16.1827 4.93573 16.1827 4.43548V2.62498C16.1827 2.12473 16.5885 1.71973 17.088 1.71973C17.5875 1.71973 17.9932 2.12473 17.9932 2.62498V4.43548C17.9932 4.93573 17.5875 5.34073 17.088 5.34073Z" fill="#49684A"/>
<path d="M21.9172 5.34073C21.417 5.34073 21.012 4.93573 21.012 4.43548V2.62498C21.012 2.12473 21.4177 1.71973 21.9172 1.71973C22.4167 1.71973 22.8225 2.12473 22.8225 2.62498V4.43548C22.8225 4.93573 22.4167 5.34073 21.9172 5.34073Z" fill="#49684A"/>
</g>
<defs>
<clipPath id="clip0_1067_8941">
<rect width="30" height="30" fill="white"/>
</clipPath>
</defs>
</svg>
