<svg width="32" height="32" viewBox="0 0 32 32" fill="none" xmlns="http://www.w3.org/2000/svg">
<g clip-path="url(#clip0_303_6773)">
<path d="M26.3952 16.0004C26.3952 15.9956 26.3952 15.9916 26.3952 15.9868C26.3936 15.1132 26.684 14.2644 27.2912 13.6356L28.7264 12.1508C29.1176 11.7468 29.1928 11.1324 28.912 10.6452L27.0936 7.49565C26.8128 7.00845 26.2424 6.76685 25.6968 6.90285L23.8144 7.37325C22.9248 7.59565 21.9832 7.46125 21.1904 6.99965L21.1672 6.98605C20.388 6.53245 19.8144 5.79485 19.5664 4.92765L19.0296 3.05325C18.8752 2.51245 18.3808 2.13965 17.8184 2.13965H14.1816C13.6192 2.13965 13.1248 2.51245 12.9704 3.05325L12.3976 5.05405C12.1704 5.84685 11.648 6.52365 10.9304 6.93005C10.8568 6.97165 10.7832 7.01485 10.7112 7.05805C9.9936 7.48765 9.1352 7.61085 8.324 7.40765L6.3024 6.90285C5.7568 6.76685 5.1872 7.00845 4.9056 7.49565L3.0872 10.6452C2.8064 11.1324 2.8816 11.7468 3.2728 12.1508L4.708 13.6356C5.3152 14.2644 5.6064 15.1124 5.6048 15.9868C5.6048 15.9916 5.6048 15.9964 5.6048 16.0004C5.6048 16.0052 5.6048 16.0092 5.6048 16.014C5.6064 16.8884 5.3152 17.7364 4.708 18.3652L3.2728 19.85C2.8816 20.254 2.8064 20.8684 3.0872 21.3556L4.9056 24.5052C5.1864 24.9924 5.7568 25.234 6.3024 25.098L8.3232 24.5932C9.1344 24.3908 9.9928 24.5132 10.7104 24.9428C10.7832 24.9868 10.8568 25.0292 10.9304 25.0708C11.648 25.4772 12.1704 26.154 12.3976 26.9468L12.9704 28.9476C13.1248 29.4884 13.6192 29.8612 14.1816 29.8612H17.8184C18.3808 29.8612 18.8752 29.4884 19.0296 28.9476L19.6024 26.9468C19.8296 26.154 20.352 25.4772 21.0696 25.0708C21.1432 25.0292 21.2168 24.986 21.2896 24.9428C22.0072 24.5132 22.8656 24.39 23.6768 24.5932L25.6976 25.098C26.2432 25.234 26.8128 24.9924 27.0944 24.5052L28.9128 21.3556C29.1936 20.8684 29.1184 20.254 28.7272 19.85L27.292 18.3652C26.6848 17.7372 26.3944 16.8884 26.396 16.014C26.396 16.0092 26.3952 16.0052 26.3952 16.0004Z" fill="#83AD83"/>
<path d="M16 21.8199C12.7912 21.8199 10.1808 19.2087 10.1808 16.0007C10.1808 12.7927 12.792 10.1807 16 10.1807C19.208 10.1807 21.82 12.7919 21.82 16.0007C21.82 19.2095 19.2088 21.8199 16 21.8199ZM16 12.5799C14.1152 12.5799 12.5808 14.1143 12.5808 15.9999C12.5808 17.8855 14.1152 19.4191 16 19.4191C17.8848 19.4191 19.42 17.8847 19.42 15.9999C19.42 14.1151 17.8856 12.5799 16 12.5799Z" fill="#B1CEB1"/>
</g>
<defs>
<clipPath id="clip0_303_6773">
<rect width="32" height="32" fill="white"/>
</clipPath>
</defs>
</svg>
