<svg width="33" height="33" viewBox="0 0 33 33" fill="none" xmlns="http://www.w3.org/2000/svg">
<g clip-path="url(#clip0_303_6780)">
<path d="M11.0056 16.0301C13.7586 16.0301 15.9904 13.7984 15.9904 11.0453C15.9904 8.29232 13.7586 6.06055 11.0056 6.06055C8.25258 6.06055 6.02081 8.29232 6.02081 11.0453C6.02081 13.7984 8.25258 16.0301 11.0056 16.0301Z" fill="#B1CEB1"/>
<path d="M11.0056 17.5547C4.30641 17.5547 1.70001 22.1227 1.70001 24.2475C1.70001 26.3723 7.24721 26.9379 11.0056 26.9379C14.764 26.9379 20.3112 26.3723 20.3112 24.2475C20.3112 22.1227 17.7056 17.5547 11.0056 17.5547Z" fill="#B1CEB1"/>
<path d="M21.9944 16.0301C24.7474 16.0301 26.9792 13.7984 26.9792 11.0453C26.9792 8.29232 24.7474 6.06055 21.9944 6.06055C19.2414 6.06055 17.0096 8.29232 17.0096 11.0453C17.0096 13.7984 19.2414 16.0301 21.9944 16.0301Z" fill="#83AD83"/>
<path d="M21.9944 17.5547C15.2952 17.5547 12.6888 22.1227 12.6888 24.2475C12.6888 26.3723 18.236 26.9379 21.9944 26.9379C25.7528 26.9379 31.3 26.3723 31.3 24.2475C31.3 22.1227 28.6944 17.5547 21.9944 17.5547Z" fill="#83AD83"/>
</g>
<defs>
<clipPath id="clip0_303_6780">
<rect width="32" height="32" fill="white" transform="translate(0.5 0.5)"/>
</clipPath>
</defs>
</svg>
