<svg width="32" height="33" viewBox="0 0 32 33" fill="none" xmlns="http://www.w3.org/2000/svg">
<g clip-path="url(#clip0_303_6837)">
<path d="M15.936 20.1668C14.8864 20.1668 14.036 19.3164 14.036 18.2668C14.036 15.174 15.9192 13.6732 17.2936 12.5772C18.4 11.6948 19.0376 11.1468 19.2696 10.1364C19.4576 9.31798 19.3152 8.62518 18.8344 8.02118C18.2096 7.23718 17.0448 6.70918 15.936 6.70918C14.4904 6.70918 13.2304 7.63478 12.8 9.01238C12.7008 9.32838 12.6512 9.65878 12.6512 9.99478C12.6512 11.0444 11.8008 11.8948 10.7512 11.8948C9.7016 11.8948 8.8512 11.0444 8.8512 9.99478C8.8512 9.27398 8.96 8.56118 9.1736 7.87798C10.1024 4.90678 12.8208 2.90918 15.9368 2.90918C18.2096 2.90918 20.4592 3.96038 21.8072 5.65398C23.004 7.15638 23.4184 9.05078 22.9736 10.9868C22.4328 13.3396 20.8968 14.5644 19.6624 15.5484C18.396 16.558 17.836 17.0548 17.836 18.266C17.836 19.3156 16.9856 20.1668 15.936 20.1668Z" fill="#83AD83"/>
<path d="M15.9624 22.4131C14.3672 22.4131 13.0744 23.7059 13.0744 25.3011C13.0744 26.8963 14.3672 28.1891 15.9624 28.1891C17.5576 28.1891 18.8504 26.8963 18.8504 25.3011C18.8504 23.7059 17.5576 22.4131 15.9624 22.4131Z" fill="#83AD83"/>
</g>
<defs>
<clipPath id="clip0_303_6837">
<rect width="32" height="32" fill="white" transform="translate(0 0.5)"/>
</clipPath>
</defs>
</svg>
