<svg width="28" height="39" viewBox="0 0 28 39" fill="none" xmlns="http://www.w3.org/2000/svg">
<path d="M5.25528 36.6113V30.9551H7.23966C8.42716 30.9551 8.98184 31.6191 8.98184 32.4551C8.98184 33.1816 8.55216 33.5098 8.05997 33.6426V33.6973C8.58341 33.7285 9.20841 34.2129 9.20841 35.1113C9.20841 35.9629 8.64591 36.6113 7.30997 36.6113H5.25528ZM7.30216 35.9863C8.18497 35.9863 8.52872 35.5957 8.52872 35.1035C8.52872 34.5254 8.06778 34.041 7.34122 34.041H5.95841V35.9863H7.30216ZM7.21622 33.4316C7.82559 33.4316 8.30997 33.0566 8.30997 32.4629C8.30997 31.9707 7.98184 31.5801 7.23966 31.5801H5.95841V33.4316H7.21622ZM11.8568 36.6973C10.7006 36.6973 9.91934 35.8301 9.91934 34.5098C9.91934 33.1895 10.7006 32.3145 11.8568 32.3145C13.0053 32.3145 13.7787 33.1895 13.7787 34.5098C13.7787 35.8301 13.0053 36.6973 11.8568 36.6973ZM11.8568 36.1035C12.7084 36.1035 13.1068 35.3535 13.1068 34.5098C13.1068 33.666 12.7084 32.9082 11.8568 32.9082C10.9897 32.9082 10.5912 33.666 10.5912 34.5098C10.5912 35.3535 10.9897 36.1035 11.8568 36.1035ZM16.3959 36.6973C15.2397 36.6973 14.4584 35.8301 14.4584 34.5098C14.4584 33.1895 15.2397 32.3145 16.3959 32.3145C17.5443 32.3145 18.3178 33.1895 18.3178 34.5098C18.3178 35.8301 17.5443 36.6973 16.3959 36.6973ZM16.3959 36.1035C17.2475 36.1035 17.6459 35.3535 17.6459 34.5098C17.6459 33.666 17.2475 32.9082 16.3959 32.9082C15.5287 32.9082 15.1303 33.666 15.1303 34.5098C15.1303 35.3535 15.5287 36.1035 16.3959 36.1035ZM19.2006 36.6113V30.9551H19.8725V34.2441H19.9506L21.7865 32.3691H22.6147L20.8256 34.1816L22.7475 36.6113H21.8959L20.3256 34.6113L19.8725 35.0254V36.6113H19.2006Z" fill="black"/>
<g clip-path="url(#clip0_1066_7098)">
<path d="M15.0606 23.4067C15.3663 23.4067 15.6524 23.2818 15.8866 23.0855C16.8549 22.2737 18.0824 21.8242 19.3558 21.8242H24.7246C25.4325 21.8242 26.0067 21.25 26.0067 20.5421V6.46875H2.50098V20.5421C2.50098 21.25 3.07524 21.8242 3.78312 21.8242H9.15193C10.4253 21.8242 11.6528 22.2743 12.6211 23.0855C12.8553 23.2818 13.1414 23.4067 13.4471 23.4067H15.0606Z" fill="#567D57"/>
<path d="M14.2539 22.1244C15.2668 21.1115 16.6407 20.5419 18.0733 20.5419H24.7243C25.4322 20.5419 26.0064 19.9677 26.0064 19.2598V5.18645C26.0064 4.47857 25.4322 3.9043 24.7243 3.9043H18.0733C16.6407 3.9043 15.2668 4.47317 14.2539 5.48675" fill="#BACCB9"/>
<path d="M14.2542 22.1244C13.2413 21.1115 11.8674 20.5419 10.4348 20.5419H3.78312C3.07524 20.5419 2.50098 19.9677 2.50098 19.2598V5.18645C2.50098 4.47857 3.07524 3.9043 3.78312 3.9043H10.4341C11.8667 3.9043 13.2406 4.47317 14.2535 5.48675" fill="#E5E8EB"/>
</g>
<defs>
<clipPath id="clip0_1066_7098">
<rect width="26.9925" height="26.9927" fill="white" transform="translate(0.757812 0.158203)"/>
</clipPath>
</defs>
</svg>
