<svg width="27" height="39" viewBox="0 0 27 39" fill="none" xmlns="http://www.w3.org/2000/svg">
<path d="M3.677 36.8242V31.168H4.38013V33.6836H7.37231V31.168H8.08325V36.8242H7.37231V34.3008H4.38013V36.8242H3.677ZM10.9739 36.9102C9.81763 36.9102 9.03638 36.043 9.03638 34.7227C9.03638 33.4023 9.81763 32.5273 10.9739 32.5273C12.1223 32.5273 12.8958 33.4023 12.8958 34.7227C12.8958 36.043 12.1223 36.9102 10.9739 36.9102ZM10.9739 36.3164C11.8254 36.3164 12.2239 35.5664 12.2239 34.7227C12.2239 33.8789 11.8254 33.1211 10.9739 33.1211C10.1067 33.1211 9.70825 33.8789 9.70825 34.7227C9.70825 35.5664 10.1067 36.3164 10.9739 36.3164ZM13.7786 36.8242V32.582H14.427V33.2461H14.4817C14.6614 32.793 15.0676 32.5273 15.6223 32.5273C16.177 32.5273 16.552 32.793 16.7551 33.2461H16.802C17.0208 32.8086 17.4661 32.5273 18.0754 32.5273C18.8333 32.5273 19.3723 32.9883 19.3723 33.9883V36.8242H18.7004V33.9961C18.7004 33.3711 18.302 33.1289 17.8411 33.1289C17.2473 33.1289 16.9114 33.5273 16.9114 34.0664V36.8242H16.2317V33.9258C16.2317 33.4492 15.8879 33.1289 15.4036 33.1289C14.8958 33.1289 14.4504 33.5586 14.4504 34.1758V36.8242H13.7786ZM22.2317 36.9102C21.0051 36.9102 20.2473 36.043 20.2473 34.7383C20.2473 33.4336 21.0129 32.5273 22.1692 32.5273C23.0598 32.5273 23.9973 33.0742 23.9973 34.6445V34.9258H20.9192C20.9504 35.8242 21.4739 36.3164 22.2317 36.3164C22.7395 36.3164 23.0598 36.0977 23.2161 35.832H23.9348C23.7317 36.4727 23.1067 36.9102 22.2317 36.9102ZM20.927 34.3555H23.3176C23.3176 33.6445 22.8645 33.1211 22.1692 33.1211C21.4348 33.1211 20.9661 33.6992 20.927 34.3555Z" fill="black"/>
<g clip-path="url(#clip0_1066_7088)">
<path d="M11.7945 19.209H14.6941C15.3418 19.209 15.8669 19.7348 15.8669 20.3817V24.4541H10.6211V20.3817C10.6211 19.7341 11.1469 19.209 11.7938 19.209H11.7945Z" fill="#49684A"/>
<path d="M23.2533 9.68419L13.9305 2.27112C13.5286 1.95129 12.9591 1.95129 12.5565 2.27112L3.23505 9.68419C2.70862 10.1027 2.40137 10.739 2.40137 11.4118V21.806C2.40137 23.2687 3.58733 24.4547 5.05007 24.4547H11.0368V20.3128C11.0368 19.7036 11.5308 19.2089 12.1407 19.2089H14.3477C14.9569 19.2089 15.4515 19.7029 15.4515 20.3128V24.4547H21.4376C22.9004 24.4547 24.0863 23.2687 24.0863 21.806V11.4118C24.0863 10.739 23.7804 10.1027 23.2533 9.68419Z" fill="#B1CEB1"/>
<path d="M23.2523 9.68353L13.9302 2.27112C13.5283 1.95129 12.9588 1.95129 12.5569 2.27112L3.23407 9.68419C2.70764 10.1027 2.40039 10.739 2.40039 11.4118V14.7618L12.5562 6.68585C12.9581 6.36602 13.5276 6.36602 13.9302 6.68585L24.0854 14.7618V11.4118C24.0854 10.739 23.7781 10.1027 23.2517 9.68353H23.2523Z" fill="#49684A"/>
</g>
<defs>
<clipPath id="clip0_1066_7088">
<rect width="26.4871" height="26.4871" fill="white"/>
</clipPath>
</defs>
</svg>
