<svg width="26" height="40" viewBox="0 0 26 40" fill="none" xmlns="http://www.w3.org/2000/svg">
<path d="M2.73747 31.7422H3.58122L5.48747 36.3984H5.55778L7.46403 31.7422H8.30778V37.3984H7.64372V33.125H7.58903L5.83122 37.3984H5.20622L3.4484 33.125H3.40153V37.3984H2.73747V31.7422ZM11.2531 37.4844C10.0265 37.4844 9.26872 36.6172 9.26872 35.3125C9.26872 34.0078 10.0343 33.1016 11.1906 33.1016C12.0812 33.1016 13.0187 33.6484 13.0187 35.2188V35.5H9.94059C9.97184 36.3984 10.4953 36.8906 11.2531 36.8906C11.7609 36.8906 12.0812 36.6719 12.2375 36.4062H12.9562C12.7531 37.0469 12.1281 37.4844 11.2531 37.4844ZM9.9484 34.9297H12.339C12.339 34.2188 11.8859 33.6953 11.1906 33.6953C10.4562 33.6953 9.98747 34.2734 9.9484 34.9297ZM13.8937 37.3984V33.1562H14.5422V33.8203H14.5968C14.7765 33.3672 15.1828 33.1016 15.7375 33.1016C16.2922 33.1016 16.6672 33.3672 16.8703 33.8203H16.9172C17.1359 33.3828 17.5812 33.1016 18.1906 33.1016C18.9484 33.1016 19.4875 33.5625 19.4875 34.5625V37.3984H18.8156V34.5703C18.8156 33.9453 18.4172 33.7031 17.9562 33.7031C17.3625 33.7031 17.0265 34.1016 17.0265 34.6406V37.3984H16.3468V34.5C16.3468 34.0234 16.0031 33.7031 15.5187 33.7031C15.0109 33.7031 14.5656 34.1328 14.5656 34.75V37.3984H13.8937ZM22.3 37.4844C21.1437 37.4844 20.3625 36.6172 20.3625 35.2969C20.3625 33.9766 21.1437 33.1016 22.3 33.1016C23.4484 33.1016 24.2218 33.9766 24.2218 35.2969C24.2218 36.6172 23.4484 37.4844 22.3 37.4844ZM22.3 36.8906C23.1515 36.8906 23.55 36.1406 23.55 35.2969C23.55 34.4531 23.1515 33.6953 22.3 33.6953C21.4328 33.6953 21.0343 34.4531 21.0343 35.2969C21.0343 36.1406 21.4328 36.8906 22.3 36.8906Z" fill="black"/>
<g clip-path="url(#clip0_1066_7085)">
<path d="M21.4747 3.00781H4.52533C3.83178 3.00781 3.26953 3.57006 3.26953 4.26361V22.4688C3.26953 23.1624 3.83178 23.7246 4.52533 23.7246H17.708L22.7299 18.7027V4.26361C22.7299 3.57006 22.1683 3.00781 21.4747 3.00781Z" fill="#B1CEB1"/>
<path fill-rule="evenodd" clip-rule="evenodd" d="M18.9641 18.7038H22.7309L17.709 23.7257V19.9589C17.709 19.2654 18.2712 18.7031 18.9648 18.7031L18.9641 18.7038Z" fill="#83AD83"/>
<path d="M22.7299 6.48828H3.26953V7.11553H22.7299V6.48828Z" fill="#83AD83"/>
<path d="M22.7299 9.45508H3.26953V10.0823H22.7299V9.45508Z" fill="#83AD83"/>
<path d="M22.7299 12.4199H3.26953V13.0472H22.7299V12.4199Z" fill="#83AD83"/>
<path d="M22.7299 15.3867H3.26953V16.014H22.7299V15.3867Z" fill="#83AD83"/>
<path d="M6.43982 4.62843C6.00627 4.62843 5.65527 4.27743 5.65527 3.84388V2.27478C5.65527 1.84123 6.00692 1.49023 6.43982 1.49023C6.87272 1.49023 7.22437 1.84123 7.22437 2.27478V3.84388C7.22437 4.27743 6.87272 4.62843 6.43982 4.62843Z" fill="#49684A"/>
<path d="M10.6254 4.62843C10.1918 4.62843 9.84082 4.27743 9.84082 3.84388V2.27478C9.84082 1.84123 10.1925 1.49023 10.6254 1.49023C11.0583 1.49023 11.4099 1.84123 11.4099 2.27478V3.84388C11.4099 4.27743 11.0583 4.62843 10.6254 4.62843Z" fill="#49684A"/>
<path d="M14.8099 4.62843C14.3764 4.62843 14.0254 4.27743 14.0254 3.84388V2.27478C14.0254 1.84123 14.377 1.49023 14.8099 1.49023C15.2428 1.49023 15.5945 1.84123 15.5945 2.27478V3.84388C15.5945 4.27743 15.2428 4.62843 14.8099 4.62843Z" fill="#49684A"/>
<path d="M18.9945 4.62843C18.561 4.62843 18.21 4.27743 18.21 3.84388V2.27478C18.21 1.84123 18.5616 1.49023 18.9945 1.49023C19.4274 1.49023 19.7791 1.84123 19.7791 2.27478V3.84388C19.7791 4.27743 19.4274 4.62843 18.9945 4.62843Z" fill="#49684A"/>
</g>
<defs>
<clipPath id="clip0_1066_7085">
<rect width="26" height="26" fill="white"/>
</clipPath>
</defs>
</svg>
