<svg width="29" height="36" viewBox="0 0 29 36" fill="none" xmlns="http://www.w3.org/2000/svg">
<path d="M4.09374 35V29.3438H6.01562C7.34374 29.3438 7.94531 30.1328 7.94531 31.1406C7.94531 32.1406 7.34374 32.9453 6.02343 32.9453H4.79687V35H4.09374ZM4.79687 32.3203H5.99218C6.89062 32.3203 7.24999 31.8125 7.24999 31.1406C7.24999 30.4609 6.89062 29.9688 5.98437 29.9688H4.79687V32.3203ZM8.84374 35V30.7578H9.49218V31.4062H9.53906C9.69531 30.9766 10.1328 30.6875 10.6328 30.6875C10.7344 30.6875 10.9062 30.6953 10.9844 30.7031V31.3828C10.9375 31.3672 10.75 31.3359 10.5781 31.3359C9.96874 31.3359 9.51562 31.7578 9.51562 32.3281V35H8.84374ZM13.2344 35.0859C12.0781 35.0859 11.2969 34.2188 11.2969 32.8984C11.2969 31.5781 12.0781 30.7031 13.2344 30.7031C14.3828 30.7031 15.1562 31.5781 15.1562 32.8984C15.1562 34.2188 14.3828 35.0859 13.2344 35.0859ZM13.2344 34.4922C14.0859 34.4922 14.4844 33.7422 14.4844 32.8984C14.4844 32.0547 14.0859 31.2969 13.2344 31.2969C12.3672 31.2969 11.9687 32.0547 11.9687 32.8984C11.9687 33.7422 12.3672 34.4922 13.2344 34.4922ZM17.9375 30.7578V31.3203H17V35H16.3203V31.3203H15.6406V30.7578H16.3203V30.1797C16.3203 29.4922 16.7812 29.0781 17.5312 29.0781C17.6953 29.0781 17.8906 29.1016 18.0312 29.125V29.7266C17.8906 29.7031 17.7656 29.6953 17.6797 29.6953C17.2109 29.6953 17 29.8906 17 30.3281V30.7578H17.9375ZM18.7344 35V30.7578H19.4062V35H18.7344ZM19.0703 30.0547C18.8125 30.0547 18.6016 29.8594 18.6016 29.6094C18.6016 29.3594 18.8125 29.1641 19.0703 29.1641C19.3281 29.1641 19.5469 29.3594 19.5469 29.6094C19.5469 29.8594 19.3281 30.0547 19.0703 30.0547ZM21.1484 29.3438V35H20.4766V29.3438H21.1484ZM24 35.0859C22.7734 35.0859 22.0156 34.2188 22.0156 32.9141C22.0156 31.6094 22.7812 30.7031 23.9375 30.7031C24.8281 30.7031 25.7656 31.25 25.7656 32.8203V33.1016H22.6875C22.7187 34 23.2422 34.4922 24 34.4922C24.5078 34.4922 24.8281 34.2734 24.9844 34.0078H25.7031C25.5 34.6484 24.875 35.0859 24 35.0859ZM22.6953 32.5312H25.0859C25.0859 31.8203 24.6328 31.2969 23.9375 31.2969C23.2031 31.2969 22.7344 31.875 22.6953 32.5312Z" fill="black"/>
<path d="M14.3614 11.3422C17.1094 11.3422 19.337 8.88358 19.337 5.85077C19.337 2.81796 17.1094 0.359375 14.3614 0.359375C11.6134 0.359375 9.38574 2.81796 9.38574 5.85077C9.38574 8.88358 11.6134 11.3422 14.3614 11.3422Z" fill="#83AD83"/>
<path d="M14.3608 13.0234C7.67388 13.0234 5.07227 18.0557 5.07227 20.3964C5.07227 22.7371 10.6093 23.3602 14.3608 23.3602C18.1123 23.3602 23.6493 22.7371 23.6493 20.3964C23.6493 18.0557 21.0485 13.0234 14.3608 13.0234Z" fill="#83AD83"/>
</svg>
